<svg width="1223" height="380" viewBox="0 0 1223 380" fill="none" xmlns="http://www.w3.org/2000/svg">
<path fill-rule="evenodd" clip-rule="evenodd" d="M152.5 158.932C196.391 158.932 231.972 123.354 231.972 79.4659H305C305 99.491 301.056 119.32 293.392 137.821C285.728 156.322 274.495 173.132 260.334 187.292C246.173 201.452 229.361 212.684 210.859 220.347C192.357 228.01 172.527 231.955 152.5 231.955C132.473 231.955 112.643 228.01 94.1408 220.347C75.6386 212.684 58.8271 201.452 44.6662 187.292C30.5053 173.132 19.2723 156.322 11.6083 137.821C3.94457 119.32 0 99.491 0 79.4659H73.0282C73.0282 123.354 108.609 158.932 152.5 158.932ZM73.0282 79.4659H231.972C231.972 35.5782 196.391 0 152.5 0C108.609 0 73.0282 35.5782 73.0282 79.4659Z" fill="#1F3028"/>
<path d="M231.972 311.42C231.972 300.985 229.916 290.651 225.922 281.01C221.929 271.369 216.075 262.609 208.695 255.23C201.315 247.85 192.555 241.997 182.913 238.004C173.271 234.01 162.936 231.955 152.5 231.955C142.064 231.955 131.729 234.01 122.087 238.004C112.445 241.997 103.685 247.85 96.3049 255.23C88.9253 262.609 83.0714 271.369 79.0776 281.01C75.0838 290.651 73.0282 300.985 73.0282 311.42H231.972Z" fill="#1F3028"/>
<path d="M374.594 271.591V55.0396H487.702C508.24 55.0396 524.801 60.1237 537.385 70.2918C550.07 80.3593 556.412 93.7491 556.412 110.461C556.412 130.596 546.748 146.352 527.418 157.728V159.087C537.989 163.416 546.496 170.564 552.939 180.531C559.382 190.397 562.604 201.37 562.604 213.451C562.604 230.264 556.463 244.157 544.18 255.131C531.999 266.104 515.538 271.591 494.799 271.591H374.594ZM406.457 147.006H484.984C497.266 147.006 506.88 144.237 513.827 138.7C520.774 133.063 524.247 125.311 524.247 115.444C524.247 105.578 520.723 97.8264 513.676 92.1886C506.729 86.4501 497.165 83.5809 484.984 83.5809H406.457V147.006ZM406.457 243.201H489.967C503.055 243.201 513.122 240.08 520.169 233.838C527.217 227.495 530.74 219.341 530.74 209.374C530.74 199.206 527.066 191.051 519.716 184.91C512.468 178.769 502.149 175.698 488.759 175.698H406.457V243.201ZM615.706 83.2789C611.981 86.6011 607.249 88.2623 601.511 88.2623C595.772 88.2623 591.04 86.6011 587.315 83.2789C583.591 79.8559 581.728 75.5269 581.728 70.2918C581.728 65.0568 583.591 60.8284 587.315 57.6068C591.04 54.2846 595.772 52.6234 601.511 52.6234C607.249 52.6234 611.981 54.2846 615.706 57.6068C619.431 60.8284 621.293 65.0568 621.293 70.2918C621.293 75.5269 619.431 79.8559 615.706 83.2789ZM586.711 271.591V116.351H616.612V271.591H586.711ZM649.78 271.591V116.351H679.832V137.945H681.04C685.973 130.596 692.97 124.556 702.03 119.824C711.192 114.991 721.41 112.575 732.686 112.575C743.961 112.575 754.129 115.243 763.19 120.579C772.251 125.814 779.298 133.465 784.332 143.533H785.54C792.688 133.365 801.497 125.663 811.967 120.428C822.538 115.193 833.411 112.575 844.586 112.575C861.6 112.575 875.845 118.213 887.322 129.489C898.799 140.764 904.538 156.671 904.538 177.208V271.591H874.637V180.078C874.637 173.131 873.53 166.99 871.315 161.654C869.1 156.218 866.13 151.989 862.405 148.969C858.68 145.949 854.653 143.684 850.324 142.174C845.995 140.663 841.414 139.908 836.582 139.908C824.4 139.908 813.93 144.69 805.172 154.255C796.413 163.718 792.034 176.554 792.034 192.763V271.591H761.982V180.078C761.982 173.131 760.875 166.99 758.66 161.654C756.445 156.218 753.475 151.989 749.75 148.969C746.025 145.949 741.998 143.684 737.669 142.174C733.441 140.663 728.961 139.908 724.229 139.908C711.947 139.908 701.477 144.64 692.819 154.104C684.161 163.567 679.832 176.453 679.832 192.763V271.591H649.78ZM969.418 275.366C964.787 275.366 960.408 275.064 956.28 274.46C952.153 273.856 947.723 272.648 942.991 270.836C938.36 269.024 934.333 266.658 930.91 263.738C927.588 260.819 924.819 256.792 922.605 251.657C920.39 246.422 919.282 240.382 919.282 233.536C919.282 227.294 920.239 221.707 922.152 216.774C924.064 211.84 926.43 207.763 929.249 204.542C932.169 201.32 935.944 198.451 940.575 195.934C945.206 193.316 949.585 191.303 953.713 189.893C957.941 188.383 962.975 186.873 968.814 185.363L1028.77 169.507V165.882C1028.77 161.755 1028.06 158.03 1026.65 154.708C1025.34 151.385 1023.58 148.717 1021.37 146.704C1019.15 144.69 1016.53 143.029 1013.51 141.721C1010.59 140.311 1007.62 139.355 1004.6 138.851C1001.68 138.247 998.614 137.945 995.392 137.945C985.426 137.945 976.768 140.311 969.418 145.043C962.069 149.775 957.74 156.469 956.431 165.127H925.474C927.286 148.214 934.535 135.227 947.22 126.166C960.005 117.106 976.063 112.575 995.392 112.575C1001.23 112.575 1006.77 113.028 1012 113.934C1017.34 114.74 1022.88 116.401 1028.62 118.918C1034.45 121.334 1039.44 124.556 1043.57 128.583C1047.69 132.509 1051.12 137.895 1053.83 144.741C1056.55 151.486 1057.91 159.339 1057.91 168.299V234.744C1057.91 238.167 1058.57 240.583 1059.87 241.993C1061.28 243.402 1063.7 244.107 1067.12 244.107H1075.43V271.591H1052.93C1041.15 271.591 1033.9 266.557 1031.18 256.49L1029.37 249.996H1028.16C1014.17 266.91 994.587 275.366 969.418 275.366ZM975.006 250.6C984.469 250.6 993.127 248.939 1000.98 245.617C1008.93 242.295 1015.53 236.959 1020.76 229.61C1026.1 222.16 1028.77 213.25 1028.77 202.88V194.877L971.533 209.676C963.68 211.79 957.941 214.458 954.317 217.68C950.794 220.901 949.032 225.381 949.032 231.12C949.032 244.107 957.69 250.6 975.006 250.6ZM1090.02 271.591V116.351H1120.07V137.945H1121.28C1126.92 130.797 1133.51 125.411 1141.06 121.787C1148.62 118.163 1158.28 116.351 1170.06 116.351H1210.38V144.137H1169.45C1153.95 144.137 1141.82 148.063 1133.06 155.916C1124.4 163.668 1120.07 174.994 1120.07 189.893V271.591H1090.02Z" fill="#1F3028"/>
</svg>
